<svg viewBox="0 0 40 40" fill="none" xmlns="http://www.w3.org/2000/svg">
<path d="M37.316 10.0001C35.5606 6.95995 33.0358 4.43542 29.9956 2.68021C26.9553 0.925011 23.5066 0.000976562 19.996 0.000976562C16.4854 0.000976562 13.0367 0.925011 9.99644 2.68021C6.95616 4.43542 4.43144 6.95995 2.676 10.0001L3.876 31.6001L37.316 10.0001Z" fill="url(#paint0_linear_7451_49524)"/>
<path d="M11.34 25L2.68 10C0.924654 13.0403 0.000529652 16.4892 0.000507355 19.9999C0.000485058 23.5106 0.924566 26.9594 2.67987 29.9998C4.43518 33.0401 6.95986 35.5649 10.0002 37.3203C13.0405 39.0757 16.4893 39.9999 20 40L39.6 20L11.34 25Z" fill="url(#paint1_linear_7451_49524)"/>
<path d="M28.66 25L20 40C23.5104 39.9992 26.9587 39.0745 29.9984 37.3188C33.0382 35.5631 35.5623 33.0383 37.3171 29.998C39.072 26.9578 39.9957 23.5092 39.9955 19.9989C39.9953 16.4885 39.0712 13.0401 37.316 10H20L28.66 25Z" fill="url(#paint2_linear_7451_49524)"/>
<path d="M20 30C21.3132 30 22.6136 29.7413 23.8268 29.2388C25.0401 28.7362 26.1425 27.9997 27.0711 27.0711C27.9997 26.1425 28.7362 25.0401 29.2388 23.8268C29.7413 22.6136 30 21.3132 30 20C30 18.6868 29.7413 17.3864 29.2388 16.1732C28.7362 14.9599 27.9997 13.8575 27.0711 12.9289C26.1425 12.0003 25.0401 11.2638 23.8268 10.7612C22.6136 10.2587 21.3132 10 20 10C17.3478 10 14.8043 11.0536 12.9289 12.9289C11.0536 14.8043 10 17.3478 10 20C10 22.6522 11.0536 25.1957 12.9289 27.0711C14.8043 28.9464 17.3478 30 20 30Z" fill="white"/>
<path d="M20 27.9201C21.0401 27.9201 22.07 27.7152 23.0309 27.3172C23.9918 26.9192 24.8648 26.3358 25.6003 25.6004C26.3357 24.8649 26.9191 23.9918 27.3171 23.0309C27.7151 22.07 27.92 21.0401 27.92 20.0001C27.92 18.96 27.7151 17.9301 27.3171 16.9692C26.9191 16.0083 26.3357 15.1352 25.6003 14.3998C24.8648 13.6644 23.9918 13.081 23.0309 12.683C22.07 12.2849 21.0401 12.0801 20 12.0801C17.8995 12.0801 15.885 12.9145 14.3997 14.3998C12.9144 15.8851 12.08 17.8996 12.08 20.0001C12.08 22.1006 12.9144 24.1151 14.3997 25.6004C15.885 27.0857 17.8995 27.9201 20 27.9201Z" fill="#1A73E8"/>
<defs>
<linearGradient id="paint0_linear_7451_49524" x1="2.68" y1="12.5001" x2="37.316" y2="12.5001" gradientUnits="userSpaceOnUse">
<stop stop-color="#D93025"/>
<stop offset="1" stop-color="#EA4335"/>
</linearGradient>
<linearGradient id="paint1_linear_7451_49524" x1="22.164" y1="38.748" x2="4.844" y2="8.748" gradientUnits="userSpaceOnUse">
<stop stop-color="#1E8E3E"/>
<stop offset="1" stop-color="#34A853"/>
</linearGradient>
<linearGradient id="paint2_linear_7451_49524" x1="17.08" y1="40" x2="34.4" y2="10.052" gradientUnits="userSpaceOnUse">
<stop stop-color="#FCC934"/>
<stop offset="1" stop-color="#FBBC04"/>
</linearGradient>
</defs>
</svg>
