<svg viewBox="0 0 40 40" fill="none" xmlns="http://www.w3.org/2000/svg">
  <path d="M38.6 20.4223C38.6 18.86 38.4732 17.72 38.1989 16.5378H20.36V23.5889H30.831C30.62 25.3411 29.48 27.98 26.9466 29.7533L26.9111 29.9893L32.5514 34.3588L32.9422 34.3978C36.531 31.0834 38.6 26.2067 38.6 20.4223Z" fill="#4285F4"/>
  <path d="M20.36 39C25.4899 39 29.7965 37.311 32.9422 34.3978L26.9466 29.7533C25.3422 30.8722 23.1888 31.6533 20.36 31.6533C15.3356 31.6533 11.0712 28.3389 9.55101 23.7578L9.32819 23.7767L3.4633 28.3156L3.3866 28.5288C6.51101 34.7355 12.9288 39 20.36 39Z" fill="#34A853"/>
  <path d="M9.55101 23.7577C9.14991 22.5755 8.91778 21.3087 8.91778 19.9999C8.91778 18.691 9.14991 17.4243 9.52991 16.2421L9.51929 15.9904L3.5809 11.3785L3.3866 11.471C2.09888 14.0465 1.35999 16.9388 1.35999 19.9999C1.35999 23.061 2.09888 25.9532 3.3866 28.5287L9.55101 23.7577Z" fill="#FBBC05"/>
  <path d="M20.36 8.34662C23.9277 8.34662 26.3343 9.88772 27.7066 11.1756L33.0688 5.94C29.7756 2.8789 25.4899 1 20.36 1C12.9288 1 6.51101 5.26441 3.3866 11.471L9.5299 16.2422C11.0712 11.6611 15.3356 8.34662 20.36 8.34662Z" fill="#EB4335"/>
</svg>
