
<svg height="24px" width="24px" version="1.1" id="Capa_1" xmlns="http://www.w3.org/2000/svg"
	 viewBox="0 0 512 512" xml:space="preserve" fill="currentColor">

  <path d="M434.343,79.026l-65.371-65.37C361.186,5.871,347.012,0,336.001,0H176c-11.011,0-25.185,5.871-32.97,13.656L77.657,79.025
    C69.871,86.812,64,100.985,64,111.996v288.007c0,11.011,5.871,25.185,13.657,32.971l65.371,65.37
    c7.786,7.785,21.96,13.656,32.971,13.656H336c11.011,0,25.185-5.871,32.97-13.656l65.372-65.369
    c7.786-7.786,13.657-21.96,13.657-32.971V111.997C448,100.986,442.129,86.813,434.343,79.026z M360,484.687V440
    c0-4.418-3.582-8-8-8s-8,3.582-8,8v54.564C341.148,495.459,338.344,496,336,496H175.999c-2.344,0-5.148-0.541-8-1.436V440
    c0-4.418-3.582-8-8-8s-8,3.582-8,8v44.687L91.312,424H136c4.418,0,8-3.582,8-8s-3.582-8-8-8H81.436
    C80.54,405.149,80,402.346,80,400.003V111.996c0-2.343,0.54-5.145,1.436-7.996H136c4.418,0,8-3.582,8-8s-3.582-8-8-8H91.311
    L152,27.314V72c0,4.418,3.582,8,8,8s8-3.582,8-8V17.437c2.852-0.896,5.656-1.437,8-1.437h160.001c2.343,0,5.147,0.54,7.999,1.436
    V72c0,4.418,3.582,8,8,8s8-3.582,8-8V27.312L420.688,88H376c-4.418,0-8,3.582-8,8s3.582,8,8,8h54.564
    c0.895,2.851,1.436,5.654,1.436,7.997v288.007c0,2.343-0.54,5.145-1.435,7.996H376c-4.418,0-8,3.582-8,8s3.582,8,8,8h44.689
    L360,484.687z"/>
  <path d="M320,88H192c-22.056,0-40,17.944-40,40v207.996c0,4.418,3.582,8,8,8s8-3.582,8-8V128c0-13.233,10.766-24,24-24h128
    c13.234,0,24,10.767,24,24v16.002c0,4.418,3.582,8,8,8s8-3.582,8-8V128C360,105.944,342.056,88,320,88z"/>
  <path d="M352,216.002c-4.418,0-8,3.582-8,8V384c0,13.233-10.767,24-24,24H192c-13.233,0-24-10.767-24-24v-16.002
    c0-4.418-3.582-8-8-8s-8,3.582-8,8V384c0,22.056,17.944,40,40,40h128c22.056,0,40-17.944,40-40V224.002
    C360,219.584,356.418,216.002,352,216.002z"/>
  <path d="M352,168.004c-4.418,0-8,3.582-8,8v15.997c0,4.418,3.582,8,8,8s8-3.582,8-8v-15.997
    C360,171.586,356.418,168.004,352,168.004z"/>
</svg>
