<svg xmlns="http://www.w3.org/2000/svg" version="1.1"
     x="0" y="0" viewBox="0 0 24 24"
     xml:space="preserve" fill="currentColor">

    <path opacity="0.3" fill-rule="evenodd" d="M14.051 10.188a1 1 0 0 1 1.263-.638 10.901 10.901 0 0 1 3.85 2.201 1 1 0 0 1-1.325 1.498 8.9 8.9 0 0 0-3.15-1.799 1 1 0 0 1-.638-1.262zM10.388 4.592c4.232-.483 8.465.94 12.258 4.144a1 1 0 1 1-1.29 1.528c-3.446-2.91-7.144-4.096-10.742-3.685a1 1 0 0 1-.226-1.987z" clip-rule="evenodd"></path>
    <path fill-rule="evenodd" d="M10.751 18.5c0-.69.557-1.25 1.244-1.25a1.26 1.26 0 0 1 1.256 1.25c0 .69-.557 1.25-1.244 1.25h-.012c-.687 0-1.244-.56-1.244-1.25z" clip-rule="evenodd" ></path>
  <path
    d="M16.458 16.207a1 1 0 0 1-1.414 0c-1.61-1.61-4.476-1.61-6.086 0a1 1 0 0 1-1.414-1.414c1.955-1.956 5.077-2.311 7.457-1.068l1.747 1.859a.996.996 0 0 1-.29.623z"></path>
  <path fill-rule="evenodd"
        d="M10.977 9.78a1 1 0 0 1-.757 1.196c-1.371.308-3.133 1.352-4.012 2.231a1 1 0 1 1-1.414-1.414c1.12-1.12 3.213-2.37 4.988-2.768a1 1 0 0 1 1.195.756zM7.42 6.105a1 1 0 0 1-.524 1.314c-1.4.602-2.817 1.635-4.25 2.845a1 1 0 1 1-1.29-1.528c1.473-1.244 3.072-2.432 4.75-3.154a1 1 0 0 1 1.313.523z"
        clip-rule="evenodd"></path>
  <path fill-rule="evenodd"
        d="M1.294 1.293a1 1 0 0 1 1.414 0l20 20a1 1 0 0 1-1.414 1.414l-20-20a1 1 0 0 1 0-1.414z"
        clip-rule="evenodd"></path>

</svg>
